<svg id="check-mark" xmlns="http://www.w3.org/2000/svg" width="20.137" height="20.785" viewBox="0 0 20.137 20.785">
  <path id="Path_27944" data-name="Path 27944" d="M19.258,20.725c-.909-.572-1.922.531-2.516,1.184-1.363,1.552-2.516,3.349-3.809,4.982-1.433,1.8-2.761,3.594-4.229,5.35A14.488,14.488,0,0,0,6.4,35.508a50.162,50.162,0,0,0-3.74-4.247c-1.014-.9-2.691-1.552-2.656.613.07,2.818,2.2,5.84,3.775,7.759a3.908,3.908,0,0,0,2.551,1.715c1.223.082,2.481-1.633,3.215-2.573,1.293-1.633,2.342-3.471,3.53-5.145,1.538-2.205,3.111-4.37,4.613-6.616C18.629,25.626,21.6,22.2,19.258,20.725ZM1.539,31.711a.234.234,0,0,0-.14.041,1.551,1.551,0,0,1-.384-.163h0Q1.172,31.466,1.539,31.711Z" transform="translate(-0.001 -20.566)" fill="#fdbb02"/>
</svg>
