<svg xmlns="http://www.w3.org/2000/svg" width="197.701" height="89.032" viewBox="0 0 197.701 89.032">
  <g id="travelcation" transform="translate(-322.869 -271.109)">
    <circle id="Ellipse_1" data-name="Ellipse 1" cx="34.027" cy="34.027" r="34.027" transform="translate(346.809 273.793)" fill="#fdbb02"/>
    <path id="Path_1" data-name="Path 1" d="M422.276,329.113q-5.433-7.713-10.851-15.434-13.927-19.908-27.847-39.816c-2.561-3.662-6.869-3.675-9.435-.02q-6.905,9.831-13.784,19.684c-3.217,4.59-6.453,9.171-9.668,13.761q-7.7,10.994-15.374,22a5.188,5.188,0,0,0,1.277,7.288c4.268,2.626,8.648,5.069,12.994,7.57l3.932,2.266h0l21.615,12.728a7.27,7.27,0,0,0,7.382,0L399.8,348.927h0c.521-.3,1.042-.608,1.566-.908,6.158-3.536,12.3-7.091,18.483-10.6C423.258,335.481,424.309,332,422.276,329.113Zm-75.065,3.449a2.217,2.217,0,0,1-.767-3.355l22.845-33.777c1.678-2.481,3.331-4.979,5.019-7.453a4.744,4.744,0,0,1,.846-.756,4.416,4.416,0,0,1,.268,1.1c-.2,10.012-.43,20.024-.633,30.037-.025,1.156-.022,2.317-.016,3.492l-.224,11.739v.848l-.112,6.04q-.036,1.765-.078,3.532c-.045,2.033-1.633,2.991-3.4,1.993q-9.764-5.5-19.5-11.046Zm63.032.114q-11.75,6.69-23.518,13.356a2.237,2.237,0,0,1-3.465-2.1q-.013-10.67,0-21.337v-1h0v-4.407a3.54,3.54,0,0,0,.029-.485c-.063-9.442-.054-18.884-.069-28.328v-1.089l.36-.15c.562.895,1.118,1.79,1.687,2.664,3.369,5.2,6.711,10.41,10.124,15.575,5.243,7.932,10.538,15.83,15.812,23.742.937,1.42.631,2.657-.96,3.563Z" transform="translate(-11.497 0)" fill="#1a3f5f"/>
    <text id="Travelcation-2" data-name="Travelcation" transform="translate(421.57 320.109)" fill="#eb553b" font-size="17" font-family="Helvetica-Bold, Helvetica" font-weight="700"><tspan x="0" y="0" letter-spacing="-0.04em">T</tspan><tspan y="0" letter-spacing="-0.01em">rav</tspan><tspan y="0">elcation</tspan></text>
  </g>
</svg>
