<svg id="Capa_1" enable-background="new 0 0 510 510" height="512" viewBox="0 0 510 510" width="512" xmlns="http://www.w3.org/2000/svg"><g><path d="m465 150h45v30h-45z"/><path d="m430.776 32.884h45.001v30h-45.001z" transform="matrix(.843 -.539 .539 .843 45.544 251.617)"/><path d="m438.276 259.615h30v45h-30z" transform="matrix(.539 -.843 .843 .539 -28.517 512.167)"/><path d="m0 150h45v30h-45z"/><path d="m34.224 267.115h45v30h-45z" transform="matrix(.843 -.539 .539 .843 -142.98 74.932)"/><path d="m41.724 25.385h30v44.999h-30z" transform="matrix(.539 -.843 .843 .539 -14.17 69.897)"/><path d="m315 445.512c0-8.544.439-17.057 1.276-25.512h-122.569c.849 8.464 1.293 16.978 1.293 25.518v4.482h-30v30h30v30h120v-30h30v-30h-30z"/><path d="m257.108.013c-44.059-.538-85.895 16.462-117.741 47.913-31.835 31.437-49.367 73.015-49.367 117.074 0 39.449 14.146 77.63 39.832 107.508 29.475 34.286 49.646 74.754 59.074 117.492h132.125c9.369-42.819 29.456-83.168 58.823-117.129 25.889-29.937 40.146-68.247 40.146-107.872 0-43.706-16.918-84.894-47.637-115.977-30.691-31.057-71.623-48.462-115.255-49.009zm42.892 134.987h-45c-8.271 0-15 6.729-15 15s6.729 15 15 15c24.814 0 45 20.187 45 45 0 19.555-12.541 36.227-30 42.42v32.58h-30v-30h-30v-30h45c8.272 0 15-6.729 15-15s-6.728-15-15-15c-24.813 0-45-20.187-45-45 0-19.555 12.541-36.228 30-42.42v-32.58h30v30h30z"/></g></svg>