<svg id="instagram_1_" data-name="instagram (1)" xmlns="http://www.w3.org/2000/svg" width="30" height="30" viewBox="0 0 30 30">
  <path id="Path_27953" data-name="Path 27953" d="M216.161,213.58a2.58,2.58,0,1,1-2.58-2.58A2.58,2.58,0,0,1,216.161,213.58Zm0,0" transform="translate(-198.58 -198.58)" fill="#1a3f5f"/>
  <path id="Path_27954" data-name="Path 27954" d="M132.656,120h-9.074A3.586,3.586,0,0,0,120,123.582v9.074a3.586,3.586,0,0,0,3.582,3.582h9.074a3.586,3.586,0,0,0,3.582-3.582v-9.074A3.586,3.586,0,0,0,132.656,120Zm-4.537,12.6a4.477,4.477,0,1,1,4.477-4.477A4.482,4.482,0,0,1,128.119,132.6Zm5.134-8.716a.9.9,0,1,1,.9-.9A.9.9,0,0,1,133.253,123.88Zm0,0" transform="translate(-113.119 -113.119)" fill="#1a3f5f"/>
  <path id="Path_27955" data-name="Path 27955" d="M22.09,0H7.91A7.919,7.919,0,0,0,0,7.91V22.09A7.919,7.919,0,0,0,7.91,30H22.09A7.919,7.919,0,0,0,30,22.09V7.91A7.919,7.919,0,0,0,22.09,0Zm2.637,19.453a5.279,5.279,0,0,1-5.273,5.273H10.547a5.279,5.279,0,0,1-5.273-5.273V10.547a5.279,5.279,0,0,1,5.273-5.273h8.906a5.279,5.279,0,0,1,5.273,5.273Zm0,0" fill="#1a3f5f"/>
</svg>
