<svg id="Layer_1" data-name="Layer 1" xmlns="http://www.w3.org/2000/svg" viewBox="0 0 1080 1080"><defs><style>.cls-1{fill:#fdbb02;}.cls-2{fill:#1a3f5f;}.cls-3{font-size:85.96px;fill:#eb553b;font-family:Baloo2-Bold, "Baloo 2";font-weight:700;}.cls-4{letter-spacing:-0.04em;}.cls-5{letter-spacing:-0.01em;}.cls-6{letter-spacing:-0.01em;}.cls-7{letter-spacing:-0.01em;}.cls-8{letter-spacing:0em;}.cls-9{letter-spacing:0em;}</style></defs><circle class="cls-1" cx="593.51" cy="438.21" r="152.12"/><path class="cls-2" d="M727.37,530.42q-24.29-34.48-48.51-69-62.26-89-124.49-178c-11.45-16.37-30.71-16.43-42.18-.09q-30.87,43.95-61.62,88c-14.38,20.52-28.85,41-43.22,61.52Q372.94,482,338.62,531.18c-7.3,10.48-5.08,25.94,5.71,32.58,19.08,11.74,38.66,22.66,58.09,33.84L420,607.73h0l96.63,56.9a32.5,32.5,0,0,0,33,0L626.87,619h0c2.33-1.36,4.66-2.72,7-4.06,27.53-15.81,55-31.7,82.63-47.38C731.76,558.89,736.46,543.32,727.37,530.42ZM391.79,545.84c-5.74-3.25-7.18-9.43-3.43-15q51.06-75.49,102.13-151c7.5-11.09,14.89-22.26,22.44-33.32.93-1.36,2.51-2.26,3.78-3.38.42,1.64,1.23,3.29,1.2,4.92-.9,44.76-1.92,89.52-2.83,134.28-.11,5.17-.1,10.36-.07,15.61l-1,52.48,0,1c0,.93,0,1.86,0,2.79l-.5,27q-.16,7.89-.35,15.79c-.2,9.09-7.3,13.37-15.22,8.91q-43.65-24.57-87.18-49.38Zm281.79.51q-52.53,29.91-105.14,59.71c-7.69,4.35-15.48-.42-15.49-9.41q-.06-47.7,0-95.39v-4.47h0v-19.7a15.89,15.89,0,0,0,.13-2.17c-.28-42.21-.24-84.42-.31-126.64v-4.87l1.61-.67c2.51,4,5,8,7.54,11.91,15.06,23.23,30,46.54,45.26,69.63,23.44,35.46,47.11,70.77,70.69,106.14C682.06,536.77,680.69,542.3,673.58,546.35Z"/><text class="cls-3" transform="translate(320.57 768.35)"><tspan class="cls-4">T</tspan><tspan class="cls-5" x="43.84" y="0">r</tspan><tspan class="cls-6" x="77.54" y="0">a</tspan><tspan class="cls-7" x="122.5" y="0">v</tspan><tspan class="cls-8" x="167.97" y="0">el</tspan><tspan class="cls-9" x="238.46" y="0">c</tspan><tspan x="280.41" y="0">ation</tspan></text></svg>