<?xml version="1.0" encoding="utf-8"?>
<!-- Generator: Adobe Illustrator 24.3.0, SVG Export Plug-In . SVG Version: 6.00 Build 0)  -->
<svg version="1.1" id="Capa_1" xmlns="http://www.w3.org/2000/svg" xmlns:xlink="http://www.w3.org/1999/xlink" x="0px" y="0px"
	 viewBox="0 0 512 512" style="enable-background:new 0 0 512 512;" xml:space="preserve">
<style type="text/css">
	.st0{fill:#1A3F5F;}
</style>
<g>
	<g>
		<path class="st0" d="M509.9,367.5l-109-140.7c-1.6-2.1-3.7-3.4-6.4-3.8c-0.9-0.2-9-1.9-14.6-10c-5.6-8.1-7-20-4.2-35.4
			c0.7-3.7-0.8-7.5-3.7-9.7c-3-2.3-7-2.7-10.4-1.1c-18.5,8.8-30.8,22.7-35.5,40.4c-0.6,2.2-1.1,4.4-1.4,6.7
			c-21.2,2.3-40.8,12.6-54.6,29.1l-6.8,8.1c-8.3,9.9-17.7,18.6-27.8,26l-58.6-60.8c-10.5-10.9-15.3-26.2-12.8-41.1l1.4-8.4l28.5-18
			l5.4,3.7c14,9.5,32.6,8.4,45.4-2.6l7.2-6.2l9.5,4.8c2.6,1.3,5.6,1.4,8.3,0.3c2.7-1.1,4.8-3.3,5.7-6l9.6-28.2l15.5-32.2
			c0.3-0.6,0.6-1.3,0.8-2c9.1-34.1-11.2-69.2-45.3-78.4c-33.7-9-68.4,10.7-78,44.1l-9.9,19.6c-6.5,12.9-18.9,22-33.1,24.5
			c-0.4,0.1-0.8,0.2-1.1,0.3L7.2,127.9c-4.3,1.3-7.2,5.2-7.2,9.6V266c0,3.7,2,7,5.2,8.8c1.5,0.8,3.2,1.2,4.8,1.2
			c1.9,0,3.7-0.5,5.4-1.6l55.2-35.3c5.1,9.8,13.5,17.7,24.2,22.1l93.4,39.5c-20.7,6.1-42.7,7.9-64.9,5L11.3,291
			c-2.9-0.4-5.7,0.5-7.9,2.4c-2.2,1.9-3.4,4.6-3.4,7.5V502c0,5.5,4.5,10,10,10h246c5.5,0,10-4.5,10-10s-4.5-10-10-10h-68.7H182
			c-9.8,0-18.8-5-23.9-13.3l-19.4-31.3c-2.9-4.7-9.1-6.1-13.8-3.2c-4.7,2.9-6.1,9.1-3.2,13.8l19.4,31.3c0.6,1,1.2,1.9,1.9,2.8H20
			V312.3l100.6,13.3c29.3,3.9,59.3,0.3,86.9-10.4c5.6-2.2,11.1-4.6,16.4-7.4l85.8,47.2l-75,67.3c-5.3-4.8-9.7-8.7-13.1-11.7
			c-2.8-2.4-5-4.2-6.6-5.5c-8.1-6.1-13.3-3-15.7-0.6c-3.9,3.9-3.9,10.2,0,14.1c1,1,2.3,1.8,3.5,2.3c5,3.7,25.4,21.9,68.4,62.8
			c4.9,4.7,7.8,11.3,7.8,18.1c0,5.5,4.5,10,10,10s10-4.5,10-10c0-12.3-5.1-24.2-14-32.6c-9.7-9.2-22.9-21.7-35.5-33.4l75.6-67.8
			c10.2,11.8,25.3,18.9,41.7,18.9h21.4l54.6,33.5c1.6,1,3.4,1.5,5.2,1.5h32.7c3.6,0,7-2,8.7-5.1l21.3-38.3
			C512.7,375,512.4,370.7,509.9,367.5z M269.4,101.2c-3.1-0.8-7.3-2.5-10.9-6.1c-2-2-3.6-4.3-4.9-7c0-0.1-0.1-0.1-0.1-0.2
			c-1.4-3-2.5-6.6-3.2-10.5l27.1,7.3L269.4,101.2z M250.9,21.5c20.1,5.4,33.2,24,32.6,43.9l-82.8-22.2
			C210.1,25.6,230.8,16.1,250.9,21.5z M192.6,61.8l37,9.9c0.1,2.1,0.3,4.1,0.5,6l-40.1-11L192.6,61.8z M214.5,290.3l-112.1-47.4
			C92,238.5,85.2,228.4,85.2,217v-41c0-5.5-4.5-10-10-10s-10,4.5-10,10v41c0,0.6,0,1.2,0,1.9L20,247.7V145l118.9-35
			c16.4-3,31.1-12.2,41-25.3l57.7,15.9c1.9,3.2,4.1,6.1,6.7,8.6c5.9,5.9,12.4,9,17.8,10.7l-2,5.7L255,123c-3.6-1.8-8-1.3-11,1.3
			l-12.3,10.6c-6,5.1-14.6,5.6-21.1,1.2l-10.8-7.3c-3.3-2.2-7.6-2.3-11-0.2l-19,12l0.8-5c0.9-5.4-2.8-10.6-8.3-11.5
			c-5.4-0.9-10.6,2.8-11.5,8.3l-6.5,39.8c-3.5,21.1,3.3,42.9,18.2,58.3l55.8,57.9C217.1,289,215.8,289.6,214.5,290.3z M417,281.9
			c0.4,0,0.8,0,1.2-0.1l6,7.8c-13.3-1.1-21.9-4.2-27.4-7.7H417z M345.5,212.6c1.7-6.2,4.7-11.7,9-16.4c0.6,11.3,3.7,20.9,9.4,28.8
			c7.6,10.7,17.6,15.1,23.3,16.8l3.3,4.3c-13.1-0.1-26.1,3.1-37.7,9.2C344.7,240.5,342.1,225.3,345.5,212.6z M310,332.4l-66.3-36.4
			c13-8.9,24.7-19.6,34.9-31.7l6.8-8.1c10.1-12,24.1-19.7,39.3-21.8c1.5,10.8,5.4,21.8,11.5,32.5c-1,0.9-2,1.9-3,2.8
			C316.6,286.3,308.3,309.3,310,332.4z M366.8,367c-13.1,0-24.9-7.2-30.9-18.4c-0.1-0.1-0.1-0.2-0.2-0.4c0,0,0-0.1,0-0.1
			c0-0.1-0.1-0.1-0.1-0.2c-0.9-1.8-1.7-3.6-2.3-5.6c-0.4-1.4-1.2-2.6-2.1-3.7c-3.3-15.7-0.2-32,8.4-45.2l35.5,73.5H366.8z
			 M474.8,402h-24l-52.1-32l-44.5-92.1c4.1-3,8.4-5.4,13.1-7.3c-0.1,0.8-0.1,1.7,0,2.5c0.2,1.5,5.3,36.9,67.7,36.9
			c1.6,0,3-0.4,4.4-1l50.8,65.5L474.8,402z"/>
	</g>
</g>
<g>
	<g>
		<path class="st0" d="M121.8,420.2l-0.3-0.5c-2.9-4.7-9.1-6.1-13.8-3.2c-4.7,2.9-6.1,9.1-3.2,13.8l0.3,0.5c1.9,3.1,5.2,4.7,8.5,4.7
			c1.8,0,3.6-0.5,5.3-1.5C123.3,431.1,124.7,424.9,121.8,420.2z"/>
	</g>
</g>
<g>
	<g>
		<path class="st0" d="M459,371c-6.1,0-11,4.9-11,11s4.9,11,11,11c6.1,0,11-4.9,11-11S465.1,371,459,371z"/>
	</g>
</g>
</svg>
